<svg xmlns="http://www.w3.org/2000/svg" height="208.128" width="269.936"><path d="M22.67 229.56q0 3.03-.55 5.13t-1.74 3.4q-1.18 1.3-3.04 1.88-1.86.59-4.5.59-2.64 0-4.5-.59-1.87-.58-3.06-1.89-1.18-1.31-1.73-3.41-.55-2.09-.55-5.11V215h4.21v14.2q0 2.17.29 3.62.3 1.45.97 2.35.67.89 1.73 1.27 1.07.38 2.61.38 1.55 0 2.62-.39 1.08-.39 1.76-1.27.67-.89.97-2.33.3-1.45.3-3.56V215h4.21v14.56zM40.57 240v-10.8q0-1.41-.09-2.39-.09-.99-.39-1.6-.3-.62-.84-.89t-1.45-.27q-.59 0-1.27.24-.68.23-1.37.64-.7.4-1.4.94-.71.53-1.36 1.11V240h-3.88v-18.95h3.88v2.64q.62-.61 1.37-1.19.76-.58 1.6-1.02.84-.44 1.74-.71.89-.26 1.79-.26 1.59 0 2.66.45 1.06.45 1.71 1.33.64.88.91 2.15t.27 2.92V240h-3.88zm24.38-2.82q-.51.78-1.16 1.4-.65.63-1.51 1.07-.85.44-1.95.68-1.09.23-2.44.23-2.39 0-4.07-.72-1.68-.73-2.74-2.04-1.07-1.32-1.56-3.15-.48-1.82-.48-4.04 0-2.31.51-4.18.52-1.87 1.58-3.18 1.07-1.31 2.71-2.02 1.64-.72 3.9-.72 2.4 0 4.17.83t2.79 2.53l-3.04 2.04q-.63-.97-1.55-1.49-.92-.51-2.33-.51-2.44 0-3.59 1.61-1.14 1.62-1.14 5.09 0 1.59.25 2.82.25 1.22.82 2.05.57.84 1.51 1.27.94.43 2.29.43.64 0 1.19-.1.55-.1 1.03-.33.49-.24.93-.62.43-.37.84-.93l3.04 1.98zm3.99 2.82v-26.89h3.88V240h-3.88zm12.7-8.65q.02 1.43.3 2.52.28 1.09.87 1.82.6.73 1.55 1.11.94.38 2.33.38 1.31 0 2.31-.44t1.85-1.51l2.98 2.02q-.54.82-1.21 1.43-.67.62-1.55 1.03-.89.42-2.02.63-1.13.22-2.57.22-4.54 0-6.69-2.5-2.16-2.5-2.16-7.38 0-2.29.46-4.16t1.48-3.21q1.02-1.34 2.66-2.07 1.65-.73 4.03-.73 2.11 0 3.6.63 1.49.64 2.43 1.79.94 1.16 1.38 2.78.43 1.63.43 3.6v2.04H81.64m8.61-2.86q0-2.36-.99-3.6-.99-1.24-3.13-1.24-1.08 0-1.85.32-.76.32-1.28.93-.51.61-.82 1.52-.31.9-.47 2.07h8.54zm28.29 4.7q0 1.9-.45 3.29-.44 1.39-1.37 2.3-.93.91-2.38 1.35-1.46.43-3.46.43-.49 0-1.12-.06-.63-.07-1.31-.19-.68-.13-1.35-.3-.66-.17-1.21-.37l1.41-3.7q.27.14.73.29.46.16.97.28.51.13 1.02.22.52.09.9.09 1.02 0 1.68-.24.66-.25 1.05-.82.39-.58.53-1.54.15-.96.15-2.4V215h4.21v18.19zm16.83 6.81v-2.15q-1.34 1.19-2.83 1.95t-3.24.76q-1.44 0-2.56-.43-1.12-.44-1.88-1.22-.76-.79-1.16-1.86-.39-1.08-.39-2.38 0-1.71.56-2.87.57-1.16 1.58-1.89 1-.73 2.38-1.1 1.38-.37 3.02-.53l4.34-.42v-.88q0-.94-.28-1.56-.28-.63-.81-1.01-.54-.38-1.32-.53-.79-.15-1.78-.15-.96 0-1.67.18t-1.24.47q-.52.29-.87.66-.34.37-.54.73l-3.07-1.97q.35-.62.95-1.2.61-.59 1.51-1.05.9-.46 2.14-.75 1.24-.29 2.86-.29 1.99 0 3.49.33 1.5.32 2.5 1.08t1.51 2.03q.5 1.28.5 3.17V240h-3.7m-.18-9.21l-2.71.25q-1.25.11-2.21.34-.97.24-1.63.65-.66.42-1 1.04-.34.63-.34 1.53 0 1.5.79 2.12.8.62 2.24.62.56 0 1.17-.19.6-.2 1.22-.53.63-.32 1.25-.77.62-.44 1.22-.93v-4.13zm24.36 6.39q-.5.78-1.15 1.4-.65.63-1.51 1.07-.86.44-1.95.68-1.09.23-2.45.23-2.38 0-4.06-.72-1.68-.73-2.75-2.04-1.06-1.32-1.55-3.15-.49-1.82-.49-4.04 0-2.31.52-4.18.51-1.87 1.58-3.18 1.06-1.31 2.71-2.02 1.64-.72 3.9-.72 2.4 0 4.17.83t2.78 2.53l-3.03 2.04q-.63-.97-1.56-1.49-.92-.51-2.33-.51-2.43 0-3.58 1.61-1.15 1.62-1.15 5.09 0 1.59.25 2.82.26 1.22.83 2.05.57.84 1.5 1.27.94.43 2.3.43.63 0 1.18-.1.55-.1 1.04-.33.49-.24.92-.62.43-.37.85-.93l3.03 1.98zm15.27 2.82l-5.55-8.18-1.91 2.11V240h-3.89v-26.89h3.89v16.09l7.02-8.15h4.59l-7.33 8.15 7.73 10.8h-4.55z" transform="translate(43.783 -122.771)" id="SvgjsG4353" xmlns:name="main_text" fill="#000"/><g id="SvgjsG4354" transform="scale(1.6)" xmlns:name="outlineContainer_mainfill" fill="#AEAEAE"><defs><style>.opacity_08{opacity:.8}</style></defs><g id="Слой_2" data-name="Слой 2" fill="#AEAEAE"><g id="Layer_1" data-name="Layer 1" fill="#AEAEAE"><path class="opacity_08" d="M0 42.81h168.71v.86H0zM0 86.87h168.71v.86H0z"/><g class="opacity_08" fill="#aeaeae"><path d="M140 33.26a.83.83 0 01-.55-.2c-32.7-27.87-61.22-10.73-61.51-10.55a.87.87 0 01-1.18-.28.86.86 0 01.24-1.18c.29-.18 29.83-18 63.52 10.71a.85.85 0 01-.56 1.5z"/><path d="M138.57 38.17c-2.08 0-5.63-1.49-6-11.48v-.89h.89c.32 0 8 .09 10.16 3.87.93 1.62.75 3.58-.54 5.84a5.51 5.51 0 01-4.51 2.66zm-4.24-10.62c.35 5.68 1.87 8.91 4.24 8.91a3.81 3.81 0 003-1.8c1-1.69 1.14-3.08.54-4.13-1.21-2.12-5.43-2.83-7.78-2.98zM123.85 21.9s2.51-8.25 12.73-2.27c0 0-1.37 8.29-12.73 2.27zM115.46 19.24s-2.88-8.13 8.89-9.4c0 0 3.83 7.48-8.89 9.4zM104 16s-3.9-11.61 11-13c0 0 5.07 10.69-11 13zM104.13 30.34S92 29.28 96.64 15.11c0 0 11.84-.39 7.49 15.23zM94.52 16.72S85.31 8.69 97.44 0c0 0 9.8 6.67-2.92 16.72z"/><path d="M124.42 23s8.61.45 5.28 11.81c0-.03-8.38.65-5.28-11.81zM107.11 16.59s9.69 1.81 4.77 12.92c0 0-9.54-.62-4.77-12.92zM116.91 18.89s7.91 1.49 3.94 10.41c0 0-7.79-.52-3.94-10.41z"/></g><g class="opacity_08" fill="#aeaeae"><path d="M26.33 33.26a.85.85 0 01-.55-1.5C59.46 3.05 89 20.87 89.29 21.05a.85.85 0 01.28 1.18.87.87 0 01-1.18.28c-.28-.18-28.8-17.32-61.5 10.55a.84.84 0 01-.56.2z"/><path d="M27.77 38.17a5.51 5.51 0 01-4.5-2.66c-1.29-2.26-1.47-4.22-.54-5.84 2.18-3.78 9.84-3.87 10.16-3.87h.9v.89c-.4 9.99-3.94 11.48-6.02 11.48zM32 27.55c-2.35.15-6.56.86-7.79 3-.6 1-.42 2.44.55 4.13a3.79 3.79 0 003 1.8c2.37-.02 3.9-3.25 4.24-8.93zM42.49 21.9S40 13.65 29.75 19.63c0 0 1.37 8.29 12.74 2.27zM50.87 19.24s2.88-8.13-8.89-9.4c.02 0-3.83 7.48 8.89 9.4zM62.31 16S66.23 4.39 51.37 3c0 0-5.11 10.69 10.94 13zM62.2 30.34s12.18-1.06 7.49-15.23c0 0-11.84-.39-7.49 15.23zM71.81 16.72S81 8.69 68.89 0c0 0-9.79 6.67 2.92 16.72z"/><path d="M41.91 23s-8.61.45-5.28 11.81c0-.03 8.37.65 5.28-11.81zM59.23 16.59s-9.7 1.81-4.78 12.92c0 0 9.55-.62 4.78-12.92zM49.43 18.89s-7.92 1.49-4 10.41c.05 0 7.84-.52 4-10.41z"/></g><path d="M28.2 43.07a1.6 1.6 0 11-1.6-1.61 1.6 1.6 0 011.6 1.61zM24.46 38.63a.91.91 0 11-.91-.91.91.91 0 01.91.91zM27.67 20.39a1.5 1.5 0 11-1.5-1.5 1.5 1.5 0 011.5 1.5zM49.06 33.33a1.39 1.39 0 11-1.39-1.39 1.39 1.39 0 011.39 1.39z" fill="#aeaeae"/><circle cx="118.27" cy="32.58" r="1.07"/><path d="M132 36.49a.37.37 0 01-.74 0 .37.37 0 11.74 0zM140.42 41.89a1.72 1.72 0 11-1.72-1.71 1.71 1.71 0 011.72 1.71zM145.44 38.36a.64.64 0 01-.64.64.64.64 0 110-1.28.64.64 0 01.64.64z" fill="#aeaeae"/><g class="opacity_08" fill="#aeaeae"><path d="M67.84 114.66c-11.14 0-25.31-3.56-40.31-16.34a.87.87 0 01-.1-1.21.86.86 0 011.21-.11c32.7 27.86 61.22 10.73 61.51 10.55a.85.85 0 01.9 1.45c-.16.13-9.33 5.66-23.21 5.66z"/><path d="M35.54 104.28h-.89c-.33 0-8-.08-10.17-3.87-.93-1.61-.75-3.57.54-5.83a5.51 5.51 0 014.5-2.67c2.08 0 5.63 1.49 6 11.49zm-6-10.67a3.82 3.82 0 00-3 1.8c-1 1.7-1.15 3.09-.54 4.14 1.22 2.12 5.43 2.82 7.78 3-.37-5.7-1.89-8.94-4.26-8.94zM44.24 108.18s-2.52 8.25-12.73 2.27c0 0 1.36-8.3 12.73-2.27zM52.62 110.84s2.88 8.13-8.89 9.4c0 0-3.83-7.49 8.89-9.4zM64.06 114.11s3.92 11.58-10.94 13c0-.03-5.12-10.72 10.94-13zM64 99.74s12.13 1.06 7.45 15.26c0 0-11.85.35-7.45-15.26zM73.57 113.36s9.21 8-2.92 16.72c0 0-9.8-6.67 2.92-16.72z"/><path d="M43.66 107.11s-8.61-.46-5.27-11.81c0 0 8.38-.68 5.27 11.81zM61 113.48s-9.7-1.81-4.78-12.91c-.02 0 9.53.62 4.78 12.91zM51.18 111.19s-7.92-1.49-3.94-10.42c0 0 7.76.53 3.94 10.42z"/></g><g class="opacity_08" fill="#aeaeae"><path d="M102 114.66c-13.88 0-23-5.53-23.21-5.64a.85.85 0 01-.27-1.17.86.86 0 011.18-.28c.28.18 28.8 17.31 61.5-10.55a.86.86 0 011.21.09.87.87 0 01-.1 1.21c-14.99 12.78-29.17 16.34-40.31 16.34z"/><path d="M134.3 104.28v-.89c.36-10 3.91-11.49 6-11.49a5.53 5.53 0 014.5 2.67c1.28 2.26 1.47 4.22.53 5.83-2.18 3.79-9.83 3.87-10.16 3.87zm6-10.67c-2.37 0-3.89 3.24-4.23 8.92 2.34-.16 6.56-.86 7.78-3 .61-1 .42-2.44-.54-4.14a3.84 3.84 0 00-2.99-1.78zM125.6 108.18s2.52 8.25 12.73 2.27c0 0-1.33-8.3-12.73-2.27zM117.22 110.84s-2.88 8.13 8.88 9.4c0 0 3.84-7.49-8.88-9.4zM105.78 114.11s-3.92 11.58 10.94 13c0-.03 5.1-10.72-10.94-13zM105.88 99.74S93.71 100.8 98.39 115c0 0 11.85.35 7.49-15.26zM96.27 113.36s-9.21 8 2.92 16.72c0 0 9.81-6.67-2.92-16.72z"/><path d="M126.18 107.11s8.61-.46 5.27-11.81c0 0-8.38-.68-5.27 11.81zM108.86 113.48s9.69-1.81 4.78-12.91c0 0-9.55.62-4.78 12.91zM118.66 111.19s7.92-1.49 3.94-10.42c0 0-7.79.53-3.94 10.42z"/></g><path d="M139.88 87a1.61 1.61 0 111.61 1.6 1.61 1.61 0 01-1.61-1.6zM143.62 91.45a.91.91 0 11.91.91.91.91 0 01-.91-.91zM140.42 109.69a1.5 1.5 0 111.49 1.49 1.5 1.5 0 01-1.49-1.49zM119 96.74a1.39 1.39 0 111.39 1.39 1.39 1.39 0 01-1.39-1.39zM48.74 97.49a1.07 1.07 0 111.07 1.07 1.07 1.07 0 01-1.07-1.07zM36.12 93.59a.38.38 0 11.37.37.38.38 0 01-.37-.37zM27.67 88.18a1.71 1.71 0 111.71 1.72 1.72 1.72 0 01-1.71-1.72zM22.64 91.71a.65.65 0 11.64.65.64.64 0 01-.64-.65z" fill="#aeaeae"/></g></g></g></svg>